<svg xmlns="http://www.w3.org/2000/svg" version="1.1" xmlns:xlink="http://www.w3.org/1999/xlink" xmlns:svgjs="http://svgjs.com/svgjs" width="1440" height="560" preserveAspectRatio="none" viewBox="0 0 1440 560">
    <g mask="url(&quot;#SvgjsMask1036&quot;)" fill="none">
        <path d="M931.1-71.17C805.03-44 840.27 285.37 558.56 285.67 276.84 285.97 7.18 74.94-186.53 72.87" stroke="rgba(194, 185, 51, 0.58)" stroke-width="2"></path>
        <path d="M1270.92-90.29C1092.55-90.19 925.22-19.45 561.17-17.38 197.13-15.31 39.68 230.92-148.57 234.62" stroke="rgba(194, 185, 51, 0.58)" stroke-width="2"></path>
        <path d="M1101.78-28.07C917.17-24.27 778.31 214.08 407.06 222.75 35.82 231.42-100.98 492.24-287.65 497.15" stroke="rgba(194, 185, 51, 0.58)" stroke-width="2"></path>
        <path d="M1087.68-100.25C919.61-83.99 831.05 261.32 523.92 271.73 216.79 282.14 104.13 388.71-39.84 389.33" stroke="rgba(194, 185, 51, 0.58)" stroke-width="2"></path>
        <path d="M872.48-38.5C763.46-18.89 812.39 243.57 539.1 253.34 265.8 263.11 43.25 403.6-127.67 404.54" stroke="rgba(194, 185, 51, 0.58)" stroke-width="2"></path>
    </g>
    <defs>
        <mask id="SvgjsMask1036">
            <rect width="1440" height="560" fill="#ffffff"></rect>
        </mask>
    </defs>
</svg>